%TF.GenerationSoftware,KiCad,Pcbnew,8.0.6*%
%TF.CreationDate,2024-11-14T22:36:56-05:00*%
%TF.ProjectId,BoostPCB,426f6f73-7450-4434-922e-6b696361645f,rev?*%
%TF.SameCoordinates,Original*%
%TF.FileFunction,Legend,Bot*%
%TF.FilePolarity,Positive*%
%FSLAX46Y46*%
G04 Gerber Fmt 4.6, Leading zero omitted, Abs format (unit mm)*
G04 Created by KiCad (PCBNEW 8.0.6) date 2024-11-14 22:36:56*
%MOMM*%
%LPD*%
G01*
G04 APERTURE LIST*
%ADD10C,0.150000*%
%ADD11C,0.120000*%
G04 APERTURE END LIST*
D10*
X57443333Y-108519819D02*
X57443333Y-109234104D01*
X57443333Y-109234104D02*
X57490952Y-109376961D01*
X57490952Y-109376961D02*
X57586190Y-109472200D01*
X57586190Y-109472200D02*
X57729047Y-109519819D01*
X57729047Y-109519819D02*
X57824285Y-109519819D01*
X57062380Y-108519819D02*
X56443333Y-108519819D01*
X56443333Y-108519819D02*
X56776666Y-108900771D01*
X56776666Y-108900771D02*
X56633809Y-108900771D01*
X56633809Y-108900771D02*
X56538571Y-108948390D01*
X56538571Y-108948390D02*
X56490952Y-108996009D01*
X56490952Y-108996009D02*
X56443333Y-109091247D01*
X56443333Y-109091247D02*
X56443333Y-109329342D01*
X56443333Y-109329342D02*
X56490952Y-109424580D01*
X56490952Y-109424580D02*
X56538571Y-109472200D01*
X56538571Y-109472200D02*
X56633809Y-109519819D01*
X56633809Y-109519819D02*
X56919523Y-109519819D01*
X56919523Y-109519819D02*
X57014761Y-109472200D01*
X57014761Y-109472200D02*
X57062380Y-109424580D01*
X79873333Y-91384819D02*
X79873333Y-92099104D01*
X79873333Y-92099104D02*
X79920952Y-92241961D01*
X79920952Y-92241961D02*
X80016190Y-92337200D01*
X80016190Y-92337200D02*
X80159047Y-92384819D01*
X80159047Y-92384819D02*
X80254285Y-92384819D01*
X79444761Y-91480057D02*
X79397142Y-91432438D01*
X79397142Y-91432438D02*
X79301904Y-91384819D01*
X79301904Y-91384819D02*
X79063809Y-91384819D01*
X79063809Y-91384819D02*
X78968571Y-91432438D01*
X78968571Y-91432438D02*
X78920952Y-91480057D01*
X78920952Y-91480057D02*
X78873333Y-91575295D01*
X78873333Y-91575295D02*
X78873333Y-91670533D01*
X78873333Y-91670533D02*
X78920952Y-91813390D01*
X78920952Y-91813390D02*
X79492380Y-92384819D01*
X79492380Y-92384819D02*
X78873333Y-92384819D01*
D11*
%TO.C,J3*%
X53010000Y-107015000D02*
X53010000Y-108265000D01*
X53010000Y-108265000D02*
X54260000Y-108265000D01*
X53300000Y-102005000D02*
X53300000Y-107975000D01*
X53300000Y-107975000D02*
X60920000Y-107975000D01*
X53310000Y-107215000D02*
X53310000Y-107965000D01*
X53310000Y-107965000D02*
X55110000Y-107965000D01*
X54060000Y-102765000D02*
X54060000Y-105715000D01*
X54060000Y-105715000D02*
X53310000Y-105715000D01*
X55110000Y-107215000D02*
X53310000Y-107215000D01*
X55110000Y-107965000D02*
X55110000Y-107215000D01*
X56610000Y-107215000D02*
X56610000Y-107965000D01*
X56610000Y-107965000D02*
X57610000Y-107965000D01*
X57110000Y-102765000D02*
X54060000Y-102765000D01*
X57110000Y-102765000D02*
X60160000Y-102765000D01*
X57610000Y-107215000D02*
X56610000Y-107215000D01*
X57610000Y-107965000D02*
X57610000Y-107215000D01*
X59110000Y-107215000D02*
X59110000Y-107965000D01*
X59110000Y-107965000D02*
X60910000Y-107965000D01*
X60160000Y-102765000D02*
X60160000Y-105715000D01*
X60160000Y-105715000D02*
X60910000Y-105715000D01*
X60910000Y-107215000D02*
X59110000Y-107215000D01*
X60910000Y-107965000D02*
X60910000Y-107215000D01*
X60920000Y-102005000D02*
X53300000Y-102005000D01*
X60920000Y-107975000D02*
X60920000Y-102005000D01*
%TO.C,J2*%
X75730000Y-93020000D02*
X75730000Y-98990000D01*
X75730000Y-98990000D02*
X83350000Y-98990000D01*
X75740000Y-93030000D02*
X75740000Y-93780000D01*
X75740000Y-93780000D02*
X77540000Y-93780000D01*
X76490000Y-95280000D02*
X75740000Y-95280000D01*
X76490000Y-98230000D02*
X76490000Y-95280000D01*
X77540000Y-93030000D02*
X75740000Y-93030000D01*
X77540000Y-93780000D02*
X77540000Y-93030000D01*
X79040000Y-93030000D02*
X79040000Y-93780000D01*
X79040000Y-93780000D02*
X80040000Y-93780000D01*
X79540000Y-98230000D02*
X76490000Y-98230000D01*
X79540000Y-98230000D02*
X82590000Y-98230000D01*
X80040000Y-93030000D02*
X79040000Y-93030000D01*
X80040000Y-93780000D02*
X80040000Y-93030000D01*
X81540000Y-93030000D02*
X81540000Y-93780000D01*
X81540000Y-93780000D02*
X83340000Y-93780000D01*
X82590000Y-95280000D02*
X83340000Y-95280000D01*
X82590000Y-98230000D02*
X82590000Y-95280000D01*
X83340000Y-93030000D02*
X81540000Y-93030000D01*
X83340000Y-93780000D02*
X83340000Y-93030000D01*
X83350000Y-93020000D02*
X75730000Y-93020000D01*
X83350000Y-98990000D02*
X83350000Y-93020000D01*
X83640000Y-92730000D02*
X82390000Y-92730000D01*
X83640000Y-93980000D02*
X83640000Y-92730000D01*
%TD*%
M02*
