%TF.GenerationSoftware,KiCad,Pcbnew,8.0.6*%
%TF.CreationDate,2024-11-14T22:36:56-05:00*%
%TF.ProjectId,BoostPCB,426f6f73-7450-4434-922e-6b696361645f,rev?*%
%TF.SameCoordinates,Original*%
%TF.FileFunction,Copper,L1,Top*%
%TF.FilePolarity,Positive*%
%FSLAX46Y46*%
G04 Gerber Fmt 4.6, Leading zero omitted, Abs format (unit mm)*
G04 Created by KiCad (PCBNEW 8.0.6) date 2024-11-14 22:36:56*
%MOMM*%
%LPD*%
G01*
G04 APERTURE LIST*
G04 Aperture macros list*
%AMRoundRect*
0 Rectangle with rounded corners*
0 $1 Rounding radius*
0 $2 $3 $4 $5 $6 $7 $8 $9 X,Y pos of 4 corners*
0 Add a 4 corners polygon primitive as box body*
4,1,4,$2,$3,$4,$5,$6,$7,$8,$9,$2,$3,0*
0 Add four circle primitives for the rounded corners*
1,1,$1+$1,$2,$3*
1,1,$1+$1,$4,$5*
1,1,$1+$1,$6,$7*
1,1,$1+$1,$8,$9*
0 Add four rect primitives between the rounded corners*
20,1,$1+$1,$2,$3,$4,$5,0*
20,1,$1+$1,$4,$5,$6,$7,0*
20,1,$1+$1,$6,$7,$8,$9,0*
20,1,$1+$1,$8,$9,$2,$3,0*%
G04 Aperture macros list end*
%TA.AperFunction,ComponentPad*%
%ADD10C,2.000000*%
%TD*%
%TA.AperFunction,ComponentPad*%
%ADD11RoundRect,0.250000X-0.600000X-0.750000X0.600000X-0.750000X0.600000X0.750000X-0.600000X0.750000X0*%
%TD*%
%TA.AperFunction,ComponentPad*%
%ADD12O,1.700000X2.000000*%
%TD*%
%TA.AperFunction,ComponentPad*%
%ADD13RoundRect,0.250000X0.600000X0.750000X-0.600000X0.750000X-0.600000X-0.750000X0.600000X-0.750000X0*%
%TD*%
%TA.AperFunction,Conductor*%
%ADD14C,2.800000*%
%TD*%
G04 APERTURE END LIST*
D10*
%TO.P,U1,1,In+*%
%TO.N,12V*%
X44500000Y-89750000D03*
%TO.P,U1,2,In-*%
%TO.N,GND*%
X44500000Y-110250000D03*
%TO.P,U1,3,Out+*%
%TO.N,48V*%
X90500000Y-89750000D03*
%TO.P,U1,4,Out-*%
%TO.N,GND*%
X90500000Y-110250000D03*
%TD*%
D11*
%TO.P,J3,1,Pin_1*%
%TO.N,12V*%
X55860000Y-105515000D03*
D12*
%TO.P,J3,2,Pin_2*%
%TO.N,GND*%
X58360000Y-105515000D03*
%TD*%
D13*
%TO.P,J2,1,Pin_1*%
%TO.N,48V*%
X80790000Y-95480000D03*
D12*
%TO.P,J2,2,Pin_2*%
%TO.N,GND*%
X78290000Y-95480000D03*
%TD*%
D14*
%TO.N,48V*%
X84770000Y-95480000D02*
X90500000Y-89750000D01*
X80790000Y-95480000D02*
X84770000Y-95480000D01*
%TO.N,12V*%
X55860000Y-101110000D02*
X44500000Y-89750000D01*
X55860000Y-105515000D02*
X55860000Y-101110000D01*
%TD*%
%TA.AperFunction,Conductor*%
%TO.N,GND*%
G36*
X89359827Y-88020185D02*
G01*
X89405582Y-88072989D01*
X89415526Y-88142147D01*
X89386501Y-88205703D01*
X89368275Y-88222876D01*
X89244219Y-88318067D01*
X84019106Y-93543181D01*
X83957783Y-93576666D01*
X83931425Y-93579500D01*
X80665435Y-93579500D01*
X80665429Y-93579500D01*
X80665424Y-93579501D01*
X80418438Y-93612017D01*
X80177792Y-93676498D01*
X79947638Y-93771830D01*
X79947623Y-93771837D01*
X79731873Y-93896400D01*
X79534225Y-94048060D01*
X79534218Y-94048066D01*
X79358066Y-94224218D01*
X79358057Y-94224228D01*
X79326620Y-94265198D01*
X79270192Y-94306401D01*
X79200446Y-94310555D01*
X79155360Y-94290029D01*
X78997557Y-94175379D01*
X78808215Y-94078903D01*
X78606124Y-94013241D01*
X78540000Y-94002768D01*
X78540000Y-95046988D01*
X78482993Y-95014075D01*
X78355826Y-94980000D01*
X78224174Y-94980000D01*
X78097007Y-95014075D01*
X78040000Y-95046988D01*
X78040000Y-94002768D01*
X78039999Y-94002768D01*
X77973875Y-94013241D01*
X77771784Y-94078903D01*
X77582442Y-94175379D01*
X77410540Y-94300272D01*
X77410535Y-94300276D01*
X77260276Y-94450535D01*
X77260272Y-94450540D01*
X77135379Y-94622442D01*
X77038904Y-94811782D01*
X76973242Y-95013869D01*
X76973242Y-95013872D01*
X76940000Y-95223753D01*
X76940000Y-95230000D01*
X77856988Y-95230000D01*
X77824075Y-95287007D01*
X77790000Y-95414174D01*
X77790000Y-95545826D01*
X77824075Y-95672993D01*
X77856988Y-95730000D01*
X76940000Y-95730000D01*
X76940000Y-95736246D01*
X76973242Y-95946127D01*
X76973242Y-95946130D01*
X77038904Y-96148217D01*
X77135379Y-96337557D01*
X77260272Y-96509459D01*
X77260276Y-96509464D01*
X77410535Y-96659723D01*
X77410540Y-96659727D01*
X77582442Y-96784620D01*
X77771782Y-96881095D01*
X77973871Y-96946757D01*
X78040000Y-96957231D01*
X78040000Y-95913012D01*
X78097007Y-95945925D01*
X78224174Y-95980000D01*
X78355826Y-95980000D01*
X78482993Y-95945925D01*
X78540000Y-95913012D01*
X78540000Y-96957230D01*
X78606126Y-96946757D01*
X78606129Y-96946757D01*
X78808217Y-96881095D01*
X78997554Y-96784622D01*
X79155359Y-96669970D01*
X79221166Y-96646490D01*
X79289219Y-96662315D01*
X79326621Y-96694802D01*
X79358060Y-96735774D01*
X79358066Y-96735781D01*
X79534218Y-96911933D01*
X79534225Y-96911939D01*
X79731873Y-97063599D01*
X79947623Y-97188162D01*
X79947638Y-97188169D01*
X80046825Y-97229253D01*
X80177793Y-97283502D01*
X80418435Y-97347982D01*
X80665435Y-97380500D01*
X84641563Y-97380500D01*
X84641595Y-97380501D01*
X84645435Y-97380501D01*
X84894558Y-97380501D01*
X84894565Y-97380501D01*
X85141565Y-97347982D01*
X85382207Y-97283502D01*
X85612373Y-97188164D01*
X85828127Y-97063599D01*
X86025776Y-96911938D01*
X86201938Y-96735776D01*
X86207302Y-96730412D01*
X86207317Y-96730394D01*
X91931937Y-91005775D01*
X92083599Y-90808126D01*
X92208164Y-90592373D01*
X92260939Y-90464961D01*
X92304779Y-90410558D01*
X92371073Y-90388493D01*
X92438773Y-90405772D01*
X92486384Y-90456909D01*
X92499500Y-90512414D01*
X92499500Y-111875500D01*
X92479815Y-111942539D01*
X92427011Y-111988294D01*
X92375500Y-111999500D01*
X42624500Y-111999500D01*
X42557461Y-111979815D01*
X42511706Y-111927011D01*
X42500500Y-111875500D01*
X42500500Y-110249994D01*
X42994859Y-110249994D01*
X42994859Y-110250005D01*
X43015385Y-110497729D01*
X43015387Y-110497738D01*
X43076412Y-110738717D01*
X43176266Y-110966364D01*
X43276564Y-111119882D01*
X44017037Y-110379409D01*
X44034075Y-110442993D01*
X44099901Y-110557007D01*
X44192993Y-110650099D01*
X44307007Y-110715925D01*
X44370590Y-110732962D01*
X43629942Y-111473609D01*
X43676768Y-111510055D01*
X43676770Y-111510056D01*
X43895385Y-111628364D01*
X43895396Y-111628369D01*
X44130506Y-111709083D01*
X44375707Y-111750000D01*
X44624293Y-111750000D01*
X44869493Y-111709083D01*
X45104603Y-111628369D01*
X45104614Y-111628364D01*
X45323228Y-111510057D01*
X45323231Y-111510055D01*
X45370056Y-111473609D01*
X44629409Y-110732962D01*
X44692993Y-110715925D01*
X44807007Y-110650099D01*
X44900099Y-110557007D01*
X44965925Y-110442993D01*
X44982962Y-110379410D01*
X45723434Y-111119882D01*
X45823731Y-110966369D01*
X45923587Y-110738717D01*
X45984612Y-110497738D01*
X45984614Y-110497729D01*
X46005141Y-110250005D01*
X46005141Y-110249994D01*
X45984614Y-110002270D01*
X45984612Y-110002261D01*
X45923587Y-109761282D01*
X45823731Y-109533630D01*
X45723434Y-109380116D01*
X44982962Y-110120589D01*
X44965925Y-110057007D01*
X44900099Y-109942993D01*
X44807007Y-109849901D01*
X44692993Y-109784075D01*
X44629410Y-109767037D01*
X45370057Y-109026390D01*
X45370056Y-109026389D01*
X45323229Y-108989943D01*
X45104614Y-108871635D01*
X45104603Y-108871630D01*
X44869493Y-108790916D01*
X44624293Y-108750000D01*
X44375707Y-108750000D01*
X44130506Y-108790916D01*
X43895396Y-108871630D01*
X43895390Y-108871632D01*
X43676761Y-108989949D01*
X43629942Y-109026388D01*
X43629942Y-109026390D01*
X44370590Y-109767037D01*
X44307007Y-109784075D01*
X44192993Y-109849901D01*
X44099901Y-109942993D01*
X44034075Y-110057007D01*
X44017037Y-110120589D01*
X43276564Y-109380116D01*
X43176267Y-109533632D01*
X43076412Y-109761282D01*
X43015387Y-110002261D01*
X43015385Y-110002270D01*
X42994859Y-110249994D01*
X42500500Y-110249994D01*
X42500500Y-108500000D01*
X81894592Y-108500000D01*
X81914201Y-108786680D01*
X81914201Y-108786684D01*
X81914202Y-108786686D01*
X81934111Y-108882492D01*
X81972666Y-109068034D01*
X81972667Y-109068037D01*
X82068894Y-109338793D01*
X82068893Y-109338793D01*
X82201098Y-109593935D01*
X82366812Y-109828700D01*
X82386613Y-109849901D01*
X82562947Y-110038708D01*
X82785853Y-110220055D01*
X82835103Y-110250005D01*
X83031382Y-110369365D01*
X83200893Y-110442993D01*
X83294942Y-110483844D01*
X83571642Y-110561371D01*
X83821920Y-110595771D01*
X83856321Y-110600500D01*
X83856322Y-110600500D01*
X84143679Y-110600500D01*
X84174370Y-110596281D01*
X84428358Y-110561371D01*
X84705058Y-110483844D01*
X84818015Y-110434779D01*
X84968617Y-110369365D01*
X84968620Y-110369363D01*
X84968625Y-110369361D01*
X85164915Y-110249994D01*
X88994859Y-110249994D01*
X88994859Y-110250005D01*
X89015385Y-110497729D01*
X89015387Y-110497738D01*
X89076412Y-110738717D01*
X89176266Y-110966364D01*
X89276564Y-111119882D01*
X90017037Y-110379409D01*
X90034075Y-110442993D01*
X90099901Y-110557007D01*
X90192993Y-110650099D01*
X90307007Y-110715925D01*
X90370590Y-110732962D01*
X89629942Y-111473609D01*
X89676768Y-111510055D01*
X89676770Y-111510056D01*
X89895385Y-111628364D01*
X89895396Y-111628369D01*
X90130506Y-111709083D01*
X90375707Y-111750000D01*
X90624293Y-111750000D01*
X90869493Y-111709083D01*
X91104603Y-111628369D01*
X91104614Y-111628364D01*
X91323228Y-111510057D01*
X91323231Y-111510055D01*
X91370056Y-111473609D01*
X90629409Y-110732962D01*
X90692993Y-110715925D01*
X90807007Y-110650099D01*
X90900099Y-110557007D01*
X90965925Y-110442993D01*
X90982962Y-110379410D01*
X91723434Y-111119882D01*
X91823731Y-110966369D01*
X91923587Y-110738717D01*
X91984612Y-110497738D01*
X91984614Y-110497729D01*
X92005141Y-110250005D01*
X92005141Y-110249994D01*
X91984614Y-110002270D01*
X91984612Y-110002261D01*
X91923587Y-109761282D01*
X91823731Y-109533630D01*
X91723434Y-109380116D01*
X90982962Y-110120589D01*
X90965925Y-110057007D01*
X90900099Y-109942993D01*
X90807007Y-109849901D01*
X90692993Y-109784075D01*
X90629410Y-109767037D01*
X91370057Y-109026390D01*
X91370056Y-109026389D01*
X91323229Y-108989943D01*
X91104614Y-108871635D01*
X91104603Y-108871630D01*
X90869493Y-108790916D01*
X90624293Y-108750000D01*
X90375707Y-108750000D01*
X90130506Y-108790916D01*
X89895396Y-108871630D01*
X89895390Y-108871632D01*
X89676761Y-108989949D01*
X89629942Y-109026388D01*
X89629942Y-109026390D01*
X90370590Y-109767037D01*
X90307007Y-109784075D01*
X90192993Y-109849901D01*
X90099901Y-109942993D01*
X90034075Y-110057007D01*
X90017037Y-110120589D01*
X89276564Y-109380116D01*
X89176267Y-109533632D01*
X89076412Y-109761282D01*
X89015387Y-110002261D01*
X89015385Y-110002270D01*
X88994859Y-110249994D01*
X85164915Y-110249994D01*
X85214147Y-110220055D01*
X85437053Y-110038708D01*
X85633189Y-109828698D01*
X85798901Y-109593936D01*
X85931104Y-109338797D01*
X86027334Y-109068032D01*
X86085798Y-108786686D01*
X86105408Y-108500000D01*
X86085798Y-108213314D01*
X86027334Y-107931968D01*
X85981387Y-107802687D01*
X85931105Y-107661206D01*
X85931106Y-107661206D01*
X85798901Y-107406064D01*
X85633187Y-107171299D01*
X85554554Y-107087105D01*
X85437053Y-106961292D01*
X85214147Y-106779945D01*
X85214146Y-106779944D01*
X84968617Y-106630634D01*
X84705063Y-106516158D01*
X84705061Y-106516157D01*
X84705058Y-106516156D01*
X84575578Y-106479877D01*
X84428364Y-106438630D01*
X84428359Y-106438629D01*
X84428358Y-106438629D01*
X84286018Y-106419064D01*
X84143679Y-106399500D01*
X84143678Y-106399500D01*
X83856322Y-106399500D01*
X83856321Y-106399500D01*
X83571642Y-106438629D01*
X83571635Y-106438630D01*
X83363861Y-106496845D01*
X83294942Y-106516156D01*
X83294939Y-106516156D01*
X83294936Y-106516158D01*
X83294935Y-106516158D01*
X83031382Y-106630634D01*
X82785853Y-106779944D01*
X82562950Y-106961289D01*
X82366812Y-107171299D01*
X82201098Y-107406064D01*
X82068894Y-107661206D01*
X81972667Y-107931962D01*
X81972666Y-107931965D01*
X81914201Y-108213319D01*
X81894592Y-108500000D01*
X42500500Y-108500000D01*
X42500500Y-90512415D01*
X42520185Y-90445376D01*
X42572989Y-90399621D01*
X42642147Y-90389677D01*
X42705703Y-90418702D01*
X42739061Y-90464963D01*
X42791830Y-90592361D01*
X42791837Y-90592376D01*
X42916400Y-90808126D01*
X43068061Y-91005774D01*
X43068067Y-91005781D01*
X49894487Y-97832200D01*
X49927972Y-97893523D01*
X49922988Y-97963215D01*
X49881116Y-98019148D01*
X49815652Y-98043565D01*
X49757405Y-98033616D01*
X49717208Y-98016156D01*
X49636560Y-97993559D01*
X49440514Y-97938630D01*
X49440509Y-97938629D01*
X49440508Y-97938629D01*
X49298168Y-97919064D01*
X49155829Y-97899500D01*
X49155828Y-97899500D01*
X48868472Y-97899500D01*
X48868471Y-97899500D01*
X48583792Y-97938629D01*
X48583785Y-97938630D01*
X48376011Y-97996845D01*
X48307092Y-98016156D01*
X48307089Y-98016156D01*
X48307086Y-98016158D01*
X48307085Y-98016158D01*
X48043532Y-98130634D01*
X47798003Y-98279944D01*
X47575100Y-98461289D01*
X47378962Y-98671299D01*
X47213248Y-98906064D01*
X47081044Y-99161206D01*
X46984817Y-99431962D01*
X46984816Y-99431965D01*
X46926351Y-99713319D01*
X46906742Y-100000000D01*
X46926351Y-100286680D01*
X46984816Y-100568034D01*
X46984817Y-100568037D01*
X47081044Y-100838793D01*
X47081043Y-100838793D01*
X47213248Y-101093935D01*
X47378962Y-101328700D01*
X47464073Y-101419831D01*
X47575097Y-101538708D01*
X47798003Y-101720055D01*
X48043532Y-101869365D01*
X48225894Y-101948575D01*
X48307092Y-101983844D01*
X48583792Y-102061371D01*
X48834070Y-102095771D01*
X48868471Y-102100500D01*
X48868472Y-102100500D01*
X49155829Y-102100500D01*
X49186520Y-102096281D01*
X49440508Y-102061371D01*
X49717208Y-101983844D01*
X49859088Y-101922217D01*
X49980767Y-101869365D01*
X49980770Y-101869363D01*
X49980775Y-101869361D01*
X50226297Y-101720055D01*
X50449203Y-101538708D01*
X50645339Y-101328698D01*
X50811051Y-101093936D01*
X50943254Y-100838797D01*
X51039484Y-100568032D01*
X51097948Y-100286686D01*
X51117558Y-100000000D01*
X51097948Y-99713314D01*
X51039484Y-99431968D01*
X50972747Y-99244187D01*
X50968844Y-99174427D01*
X51003277Y-99113630D01*
X51065113Y-99081101D01*
X51134718Y-99087167D01*
X51177268Y-99114981D01*
X53923181Y-101860894D01*
X53956666Y-101922217D01*
X53959500Y-101948575D01*
X53959500Y-105639558D01*
X53959501Y-105639575D01*
X53992017Y-105886561D01*
X54056498Y-106127207D01*
X54151830Y-106357361D01*
X54151837Y-106357376D01*
X54276400Y-106573126D01*
X54428060Y-106770774D01*
X54428066Y-106770781D01*
X54604218Y-106946933D01*
X54604225Y-106946939D01*
X54801873Y-107098599D01*
X55017623Y-107223162D01*
X55017638Y-107223169D01*
X55116825Y-107264253D01*
X55247793Y-107318502D01*
X55488435Y-107382982D01*
X55735435Y-107415500D01*
X55735442Y-107415500D01*
X55984558Y-107415500D01*
X55984565Y-107415500D01*
X56231565Y-107382982D01*
X56472207Y-107318502D01*
X56702373Y-107223164D01*
X56918127Y-107098599D01*
X57115776Y-106946938D01*
X57291938Y-106770776D01*
X57323379Y-106729800D01*
X57379803Y-106688600D01*
X57449549Y-106684444D01*
X57494638Y-106704970D01*
X57652442Y-106819620D01*
X57841782Y-106916095D01*
X58043871Y-106981757D01*
X58110000Y-106992231D01*
X58110000Y-105948012D01*
X58167007Y-105980925D01*
X58294174Y-106015000D01*
X58425826Y-106015000D01*
X58552993Y-105980925D01*
X58610000Y-105948012D01*
X58610000Y-106992230D01*
X58676126Y-106981757D01*
X58676129Y-106981757D01*
X58878217Y-106916095D01*
X59067557Y-106819620D01*
X59239459Y-106694727D01*
X59239464Y-106694723D01*
X59389723Y-106544464D01*
X59389727Y-106544459D01*
X59514620Y-106372557D01*
X59611095Y-106183217D01*
X59676757Y-105981130D01*
X59676757Y-105981127D01*
X59710000Y-105771246D01*
X59710000Y-105765000D01*
X58793012Y-105765000D01*
X58825925Y-105707993D01*
X58860000Y-105580826D01*
X58860000Y-105449174D01*
X58825925Y-105322007D01*
X58793012Y-105265000D01*
X59710000Y-105265000D01*
X59710000Y-105258753D01*
X59676757Y-105048872D01*
X59676757Y-105048869D01*
X59611095Y-104846782D01*
X59514620Y-104657442D01*
X59389727Y-104485540D01*
X59389723Y-104485535D01*
X59239464Y-104335276D01*
X59239459Y-104335272D01*
X59067557Y-104210379D01*
X58878215Y-104113903D01*
X58676124Y-104048241D01*
X58610000Y-104037768D01*
X58610000Y-105081988D01*
X58552993Y-105049075D01*
X58425826Y-105015000D01*
X58294174Y-105015000D01*
X58167007Y-105049075D01*
X58110000Y-105081988D01*
X58110000Y-104037768D01*
X58109999Y-104037768D01*
X58043875Y-104048241D01*
X57922817Y-104087575D01*
X57852976Y-104089570D01*
X57793144Y-104053489D01*
X57762316Y-103990788D01*
X57760500Y-103969644D01*
X57760500Y-101238980D01*
X57760501Y-101238951D01*
X57760501Y-100985441D01*
X57760500Y-100985427D01*
X57741195Y-100838793D01*
X57727982Y-100738435D01*
X57663502Y-100497793D01*
X57568164Y-100267627D01*
X57530293Y-100202033D01*
X57443599Y-100051873D01*
X57291939Y-99854225D01*
X57291933Y-99854218D01*
X57113369Y-99675654D01*
X57113330Y-99675617D01*
X51227488Y-93789775D01*
X51194003Y-93728452D01*
X51198987Y-93658760D01*
X51240859Y-93602827D01*
X51298281Y-93579249D01*
X51428358Y-93561371D01*
X51705058Y-93483844D01*
X51818015Y-93434779D01*
X51968617Y-93369365D01*
X51968620Y-93369363D01*
X51968625Y-93369361D01*
X52214147Y-93220055D01*
X52437053Y-93038708D01*
X52633189Y-92828698D01*
X52798901Y-92593936D01*
X52931104Y-92338797D01*
X53027334Y-92068032D01*
X53085798Y-91786686D01*
X53105408Y-91500000D01*
X53085798Y-91213314D01*
X53027334Y-90931968D01*
X52983320Y-90808126D01*
X52931105Y-90661206D01*
X52931106Y-90661206D01*
X52798901Y-90406064D01*
X52633187Y-90171299D01*
X52554554Y-90087105D01*
X52437053Y-89961292D01*
X52214147Y-89779945D01*
X52214146Y-89779944D01*
X51968617Y-89630634D01*
X51705063Y-89516158D01*
X51705061Y-89516157D01*
X51705058Y-89516156D01*
X51575578Y-89479877D01*
X51428364Y-89438630D01*
X51428359Y-89438629D01*
X51428358Y-89438629D01*
X51286018Y-89419064D01*
X51143679Y-89399500D01*
X51143678Y-89399500D01*
X50856322Y-89399500D01*
X50856321Y-89399500D01*
X50571642Y-89438629D01*
X50571635Y-89438630D01*
X50363861Y-89496845D01*
X50294942Y-89516156D01*
X50294939Y-89516156D01*
X50294936Y-89516158D01*
X50294935Y-89516158D01*
X50031382Y-89630634D01*
X49785853Y-89779944D01*
X49562950Y-89961289D01*
X49366812Y-90171299D01*
X49201098Y-90406064D01*
X49068894Y-90661206D01*
X48972667Y-90931962D01*
X48972663Y-90931976D01*
X48915640Y-91206388D01*
X48882728Y-91268020D01*
X48821719Y-91302074D01*
X48751984Y-91297739D01*
X48706553Y-91268840D01*
X45755781Y-88318067D01*
X45631726Y-88222876D01*
X45590524Y-88166448D01*
X45586369Y-88096702D01*
X45620581Y-88035781D01*
X45682299Y-88003029D01*
X45707213Y-88000500D01*
X89292788Y-88000500D01*
X89359827Y-88020185D01*
G37*
%TD.AperFunction*%
%TD*%
M02*
