%TF.GenerationSoftware,KiCad,Pcbnew,8.0.6*%
%TF.CreationDate,2024-11-14T22:36:56-05:00*%
%TF.ProjectId,BoostPCB,426f6f73-7450-4434-922e-6b696361645f,rev?*%
%TF.SameCoordinates,Original*%
%TF.FileFunction,Copper,L2,Bot*%
%TF.FilePolarity,Positive*%
%FSLAX46Y46*%
G04 Gerber Fmt 4.6, Leading zero omitted, Abs format (unit mm)*
G04 Created by KiCad (PCBNEW 8.0.6) date 2024-11-14 22:36:56*
%MOMM*%
%LPD*%
G01*
G04 APERTURE LIST*
G04 Aperture macros list*
%AMRoundRect*
0 Rectangle with rounded corners*
0 $1 Rounding radius*
0 $2 $3 $4 $5 $6 $7 $8 $9 X,Y pos of 4 corners*
0 Add a 4 corners polygon primitive as box body*
4,1,4,$2,$3,$4,$5,$6,$7,$8,$9,$2,$3,0*
0 Add four circle primitives for the rounded corners*
1,1,$1+$1,$2,$3*
1,1,$1+$1,$4,$5*
1,1,$1+$1,$6,$7*
1,1,$1+$1,$8,$9*
0 Add four rect primitives between the rounded corners*
20,1,$1+$1,$2,$3,$4,$5,0*
20,1,$1+$1,$4,$5,$6,$7,0*
20,1,$1+$1,$6,$7,$8,$9,0*
20,1,$1+$1,$8,$9,$2,$3,0*%
G04 Aperture macros list end*
%TA.AperFunction,ComponentPad*%
%ADD10C,2.000000*%
%TD*%
%TA.AperFunction,ComponentPad*%
%ADD11RoundRect,0.250000X-0.600000X-0.750000X0.600000X-0.750000X0.600000X0.750000X-0.600000X0.750000X0*%
%TD*%
%TA.AperFunction,ComponentPad*%
%ADD12O,1.700000X2.000000*%
%TD*%
%TA.AperFunction,ComponentPad*%
%ADD13RoundRect,0.250000X0.600000X0.750000X-0.600000X0.750000X-0.600000X-0.750000X0.600000X-0.750000X0*%
%TD*%
%TA.AperFunction,Conductor*%
%ADD14C,2.800000*%
%TD*%
G04 APERTURE END LIST*
D10*
%TO.P,U1,1,In+*%
%TO.N,12V*%
X44500000Y-89750000D03*
%TO.P,U1,2,In-*%
%TO.N,GND*%
X44500000Y-110250000D03*
%TO.P,U1,3,Out+*%
%TO.N,48V*%
X90500000Y-89750000D03*
%TO.P,U1,4,Out-*%
%TO.N,GND*%
X90500000Y-110250000D03*
%TD*%
D11*
%TO.P,J3,1,Pin_1*%
%TO.N,12V*%
X55860000Y-105515000D03*
D12*
%TO.P,J3,2,Pin_2*%
%TO.N,GND*%
X58360000Y-105515000D03*
%TD*%
D13*
%TO.P,J2,1,Pin_1*%
%TO.N,48V*%
X80790000Y-95480000D03*
D12*
%TO.P,J2,2,Pin_2*%
%TO.N,GND*%
X78290000Y-95480000D03*
%TD*%
D14*
%TO.N,GND*%
X78290000Y-95480000D02*
X78290000Y-98980000D01*
X55098222Y-110250000D02*
X44500000Y-110250000D01*
X90500000Y-107430000D02*
X90500000Y-110250000D01*
X71755000Y-105515000D02*
X58360000Y-105515000D01*
X84010000Y-104700000D02*
X87770000Y-104700000D01*
X87770000Y-104700000D02*
X90500000Y-107430000D01*
X58360000Y-105515000D02*
X58360000Y-106988222D01*
X58360000Y-106988222D02*
X55098222Y-110250000D01*
X78290000Y-98980000D02*
X84010000Y-104700000D01*
X78290000Y-98980000D02*
X71755000Y-105515000D01*
%TD*%
%TA.AperFunction,Conductor*%
%TO.N,GND*%
G36*
X92442539Y-88020185D02*
G01*
X92488294Y-88072989D01*
X92499500Y-88124500D01*
X92499500Y-111875500D01*
X92479815Y-111942539D01*
X92427011Y-111988294D01*
X92375500Y-111999500D01*
X42624500Y-111999500D01*
X42557461Y-111979815D01*
X42511706Y-111927011D01*
X42500500Y-111875500D01*
X42500500Y-110249994D01*
X42994859Y-110249994D01*
X42994859Y-110250005D01*
X43015385Y-110497729D01*
X43015387Y-110497738D01*
X43076412Y-110738717D01*
X43176266Y-110966364D01*
X43276564Y-111119882D01*
X44017037Y-110379409D01*
X44034075Y-110442993D01*
X44099901Y-110557007D01*
X44192993Y-110650099D01*
X44307007Y-110715925D01*
X44370590Y-110732962D01*
X43629942Y-111473609D01*
X43676768Y-111510055D01*
X43676770Y-111510056D01*
X43895385Y-111628364D01*
X43895396Y-111628369D01*
X44130506Y-111709083D01*
X44375707Y-111750000D01*
X44624293Y-111750000D01*
X44869493Y-111709083D01*
X45104603Y-111628369D01*
X45104614Y-111628364D01*
X45323228Y-111510057D01*
X45323231Y-111510055D01*
X45370056Y-111473609D01*
X44629409Y-110732962D01*
X44692993Y-110715925D01*
X44807007Y-110650099D01*
X44900099Y-110557007D01*
X44965925Y-110442993D01*
X44982962Y-110379410D01*
X45723434Y-111119882D01*
X45823731Y-110966369D01*
X45923587Y-110738717D01*
X45984612Y-110497738D01*
X45984614Y-110497729D01*
X46005141Y-110250005D01*
X46005141Y-110249994D01*
X45984614Y-110002270D01*
X45984612Y-110002261D01*
X45923587Y-109761282D01*
X45823731Y-109533630D01*
X45723434Y-109380116D01*
X44982962Y-110120589D01*
X44965925Y-110057007D01*
X44900099Y-109942993D01*
X44807007Y-109849901D01*
X44692993Y-109784075D01*
X44629410Y-109767037D01*
X45370057Y-109026390D01*
X45370056Y-109026389D01*
X45323229Y-108989943D01*
X45104614Y-108871635D01*
X45104603Y-108871630D01*
X44869493Y-108790916D01*
X44624293Y-108750000D01*
X44375707Y-108750000D01*
X44130506Y-108790916D01*
X43895396Y-108871630D01*
X43895390Y-108871632D01*
X43676761Y-108989949D01*
X43629942Y-109026388D01*
X43629942Y-109026390D01*
X44370590Y-109767037D01*
X44307007Y-109784075D01*
X44192993Y-109849901D01*
X44099901Y-109942993D01*
X44034075Y-110057007D01*
X44017037Y-110120589D01*
X43276564Y-109380116D01*
X43176267Y-109533632D01*
X43076412Y-109761282D01*
X43015387Y-110002261D01*
X43015385Y-110002270D01*
X42994859Y-110249994D01*
X42500500Y-110249994D01*
X42500500Y-108500000D01*
X81894592Y-108500000D01*
X81914201Y-108786680D01*
X81914201Y-108786684D01*
X81914202Y-108786686D01*
X81934111Y-108882492D01*
X81972666Y-109068034D01*
X81972667Y-109068037D01*
X82068894Y-109338793D01*
X82068893Y-109338793D01*
X82201098Y-109593935D01*
X82366812Y-109828700D01*
X82386613Y-109849901D01*
X82562947Y-110038708D01*
X82785853Y-110220055D01*
X82835103Y-110250005D01*
X83031382Y-110369365D01*
X83200893Y-110442993D01*
X83294942Y-110483844D01*
X83571642Y-110561371D01*
X83821920Y-110595771D01*
X83856321Y-110600500D01*
X83856322Y-110600500D01*
X84143679Y-110600500D01*
X84174370Y-110596281D01*
X84428358Y-110561371D01*
X84705058Y-110483844D01*
X84818015Y-110434779D01*
X84968617Y-110369365D01*
X84968620Y-110369363D01*
X84968625Y-110369361D01*
X85164915Y-110249994D01*
X88994859Y-110249994D01*
X88994859Y-110250005D01*
X89015385Y-110497729D01*
X89015387Y-110497738D01*
X89076412Y-110738717D01*
X89176266Y-110966364D01*
X89276564Y-111119882D01*
X90017037Y-110379409D01*
X90034075Y-110442993D01*
X90099901Y-110557007D01*
X90192993Y-110650099D01*
X90307007Y-110715925D01*
X90370590Y-110732962D01*
X89629942Y-111473609D01*
X89676768Y-111510055D01*
X89676770Y-111510056D01*
X89895385Y-111628364D01*
X89895396Y-111628369D01*
X90130506Y-111709083D01*
X90375707Y-111750000D01*
X90624293Y-111750000D01*
X90869493Y-111709083D01*
X91104603Y-111628369D01*
X91104614Y-111628364D01*
X91323228Y-111510057D01*
X91323231Y-111510055D01*
X91370056Y-111473609D01*
X90629409Y-110732962D01*
X90692993Y-110715925D01*
X90807007Y-110650099D01*
X90900099Y-110557007D01*
X90965925Y-110442993D01*
X90982962Y-110379410D01*
X91723434Y-111119882D01*
X91823731Y-110966369D01*
X91923587Y-110738717D01*
X91984612Y-110497738D01*
X91984614Y-110497729D01*
X92005141Y-110250005D01*
X92005141Y-110249994D01*
X91984614Y-110002270D01*
X91984612Y-110002261D01*
X91923587Y-109761282D01*
X91823731Y-109533630D01*
X91723434Y-109380116D01*
X90982962Y-110120589D01*
X90965925Y-110057007D01*
X90900099Y-109942993D01*
X90807007Y-109849901D01*
X90692993Y-109784075D01*
X90629410Y-109767037D01*
X91370057Y-109026390D01*
X91370056Y-109026389D01*
X91323229Y-108989943D01*
X91104614Y-108871635D01*
X91104603Y-108871630D01*
X90869493Y-108790916D01*
X90624293Y-108750000D01*
X90375707Y-108750000D01*
X90130506Y-108790916D01*
X89895396Y-108871630D01*
X89895390Y-108871632D01*
X89676761Y-108989949D01*
X89629942Y-109026388D01*
X89629942Y-109026390D01*
X90370590Y-109767037D01*
X90307007Y-109784075D01*
X90192993Y-109849901D01*
X90099901Y-109942993D01*
X90034075Y-110057007D01*
X90017037Y-110120589D01*
X89276564Y-109380116D01*
X89176267Y-109533632D01*
X89076412Y-109761282D01*
X89015387Y-110002261D01*
X89015385Y-110002270D01*
X88994859Y-110249994D01*
X85164915Y-110249994D01*
X85214147Y-110220055D01*
X85437053Y-110038708D01*
X85633189Y-109828698D01*
X85798901Y-109593936D01*
X85931104Y-109338797D01*
X86027334Y-109068032D01*
X86085798Y-108786686D01*
X86105408Y-108500000D01*
X86085798Y-108213314D01*
X86027334Y-107931968D01*
X85981387Y-107802687D01*
X85931105Y-107661206D01*
X85931106Y-107661206D01*
X85798901Y-107406064D01*
X85633187Y-107171299D01*
X85554554Y-107087105D01*
X85437053Y-106961292D01*
X85214147Y-106779945D01*
X85214146Y-106779944D01*
X84968617Y-106630634D01*
X84705063Y-106516158D01*
X84705061Y-106516157D01*
X84705058Y-106516156D01*
X84575578Y-106479877D01*
X84428364Y-106438630D01*
X84428359Y-106438629D01*
X84428358Y-106438629D01*
X84276789Y-106417796D01*
X84143679Y-106399500D01*
X84143678Y-106399500D01*
X83856322Y-106399500D01*
X83856321Y-106399500D01*
X83571642Y-106438629D01*
X83571635Y-106438630D01*
X83363861Y-106496845D01*
X83294942Y-106516156D01*
X83294939Y-106516156D01*
X83294936Y-106516158D01*
X83294935Y-106516158D01*
X83031382Y-106630634D01*
X82785853Y-106779944D01*
X82562950Y-106961289D01*
X82366812Y-107171299D01*
X82201098Y-107406064D01*
X82068894Y-107661206D01*
X81972667Y-107931962D01*
X81972666Y-107931965D01*
X81914201Y-108213319D01*
X81894592Y-108500000D01*
X42500500Y-108500000D01*
X42500500Y-104714983D01*
X54509500Y-104714983D01*
X54509500Y-106315001D01*
X54509501Y-106315018D01*
X54520000Y-106417796D01*
X54520001Y-106417799D01*
X54554031Y-106520493D01*
X54575186Y-106584334D01*
X54667288Y-106733656D01*
X54791344Y-106857712D01*
X54940666Y-106949814D01*
X55107203Y-107004999D01*
X55209991Y-107015500D01*
X56510008Y-107015499D01*
X56612797Y-107004999D01*
X56779334Y-106949814D01*
X56928656Y-106857712D01*
X57052712Y-106733656D01*
X57144814Y-106584334D01*
X57144814Y-106584331D01*
X57148448Y-106578441D01*
X57200395Y-106531716D01*
X57269358Y-106520493D01*
X57333440Y-106548336D01*
X57341668Y-106555856D01*
X57480535Y-106694723D01*
X57480540Y-106694727D01*
X57652442Y-106819620D01*
X57841782Y-106916095D01*
X58043871Y-106981757D01*
X58110000Y-106992231D01*
X58110000Y-105948012D01*
X58167007Y-105980925D01*
X58294174Y-106015000D01*
X58425826Y-106015000D01*
X58552993Y-105980925D01*
X58610000Y-105948012D01*
X58610000Y-106992230D01*
X58676126Y-106981757D01*
X58676129Y-106981757D01*
X58878217Y-106916095D01*
X59067557Y-106819620D01*
X59239459Y-106694727D01*
X59239464Y-106694723D01*
X59389723Y-106544464D01*
X59389727Y-106544459D01*
X59514620Y-106372557D01*
X59611095Y-106183217D01*
X59676757Y-105981130D01*
X59676757Y-105981127D01*
X59710000Y-105771246D01*
X59710000Y-105765000D01*
X58793012Y-105765000D01*
X58825925Y-105707993D01*
X58860000Y-105580826D01*
X58860000Y-105449174D01*
X58825925Y-105322007D01*
X58793012Y-105265000D01*
X59710000Y-105265000D01*
X59710000Y-105258753D01*
X59676757Y-105048872D01*
X59676757Y-105048869D01*
X59611095Y-104846782D01*
X59514620Y-104657442D01*
X59389727Y-104485540D01*
X59389723Y-104485535D01*
X59239464Y-104335276D01*
X59239459Y-104335272D01*
X59067557Y-104210379D01*
X58878215Y-104113903D01*
X58676124Y-104048241D01*
X58610000Y-104037768D01*
X58610000Y-105081988D01*
X58552993Y-105049075D01*
X58425826Y-105015000D01*
X58294174Y-105015000D01*
X58167007Y-105049075D01*
X58110000Y-105081988D01*
X58110000Y-104037768D01*
X58109999Y-104037768D01*
X58043875Y-104048241D01*
X57841784Y-104113903D01*
X57652442Y-104210379D01*
X57480541Y-104335271D01*
X57341668Y-104474144D01*
X57280345Y-104507628D01*
X57210653Y-104502644D01*
X57154720Y-104460772D01*
X57148448Y-104451558D01*
X57052712Y-104296344D01*
X56928657Y-104172289D01*
X56928656Y-104172288D01*
X56779334Y-104080186D01*
X56612797Y-104025001D01*
X56612795Y-104025000D01*
X56510010Y-104014500D01*
X55209998Y-104014500D01*
X55209981Y-104014501D01*
X55107203Y-104025000D01*
X55107200Y-104025001D01*
X54940668Y-104080185D01*
X54940663Y-104080187D01*
X54791342Y-104172289D01*
X54667289Y-104296342D01*
X54575187Y-104445663D01*
X54575185Y-104445668D01*
X54570180Y-104460772D01*
X54520001Y-104612203D01*
X54520001Y-104612204D01*
X54520000Y-104612204D01*
X54509500Y-104714983D01*
X42500500Y-104714983D01*
X42500500Y-100000000D01*
X46906742Y-100000000D01*
X46926351Y-100286680D01*
X46984816Y-100568034D01*
X46984817Y-100568037D01*
X47081044Y-100838793D01*
X47081043Y-100838793D01*
X47213248Y-101093935D01*
X47378962Y-101328700D01*
X47464073Y-101419831D01*
X47575097Y-101538708D01*
X47798003Y-101720055D01*
X48043532Y-101869365D01*
X48230387Y-101950526D01*
X48307092Y-101983844D01*
X48583792Y-102061371D01*
X48834070Y-102095771D01*
X48868471Y-102100500D01*
X48868472Y-102100500D01*
X49155829Y-102100500D01*
X49186520Y-102096281D01*
X49440508Y-102061371D01*
X49717208Y-101983844D01*
X49830165Y-101934779D01*
X49980767Y-101869365D01*
X49980770Y-101869363D01*
X49980775Y-101869361D01*
X50226297Y-101720055D01*
X50449203Y-101538708D01*
X50645339Y-101328698D01*
X50811051Y-101093936D01*
X50943254Y-100838797D01*
X51039484Y-100568032D01*
X51097948Y-100286686D01*
X51117558Y-100000000D01*
X51097948Y-99713314D01*
X51039484Y-99431968D01*
X50943255Y-99161206D01*
X50943256Y-99161206D01*
X50811051Y-98906064D01*
X50645337Y-98671299D01*
X50566704Y-98587105D01*
X50449203Y-98461292D01*
X50226297Y-98279945D01*
X50226296Y-98279944D01*
X49980767Y-98130634D01*
X49717213Y-98016158D01*
X49717211Y-98016157D01*
X49717208Y-98016156D01*
X49587728Y-97979877D01*
X49440514Y-97938630D01*
X49440509Y-97938629D01*
X49440508Y-97938629D01*
X49298168Y-97919064D01*
X49155829Y-97899500D01*
X49155828Y-97899500D01*
X48868472Y-97899500D01*
X48868471Y-97899500D01*
X48583792Y-97938629D01*
X48583785Y-97938630D01*
X48376011Y-97996845D01*
X48307092Y-98016156D01*
X48307089Y-98016156D01*
X48307086Y-98016158D01*
X48307085Y-98016158D01*
X48043532Y-98130634D01*
X47798003Y-98279944D01*
X47575100Y-98461289D01*
X47378962Y-98671299D01*
X47213248Y-98906064D01*
X47081044Y-99161206D01*
X46984817Y-99431962D01*
X46984816Y-99431965D01*
X46926351Y-99713319D01*
X46906742Y-100000000D01*
X42500500Y-100000000D01*
X42500500Y-95223753D01*
X76940000Y-95223753D01*
X76940000Y-95230000D01*
X77856988Y-95230000D01*
X77824075Y-95287007D01*
X77790000Y-95414174D01*
X77790000Y-95545826D01*
X77824075Y-95672993D01*
X77856988Y-95730000D01*
X76940000Y-95730000D01*
X76940000Y-95736246D01*
X76973242Y-95946127D01*
X76973242Y-95946130D01*
X77038904Y-96148217D01*
X77135379Y-96337557D01*
X77260272Y-96509459D01*
X77260276Y-96509464D01*
X77410535Y-96659723D01*
X77410540Y-96659727D01*
X77582442Y-96784620D01*
X77771782Y-96881095D01*
X77973871Y-96946757D01*
X78040000Y-96957231D01*
X78040000Y-95913012D01*
X78097007Y-95945925D01*
X78224174Y-95980000D01*
X78355826Y-95980000D01*
X78482993Y-95945925D01*
X78540000Y-95913012D01*
X78540000Y-96957230D01*
X78606126Y-96946757D01*
X78606129Y-96946757D01*
X78808217Y-96881095D01*
X78997557Y-96784620D01*
X79169458Y-96659728D01*
X79308330Y-96520856D01*
X79369653Y-96487371D01*
X79439345Y-96492355D01*
X79495279Y-96534226D01*
X79501551Y-96543440D01*
X79505185Y-96549331D01*
X79505186Y-96549334D01*
X79597288Y-96698656D01*
X79721344Y-96822712D01*
X79870666Y-96914814D01*
X80037203Y-96969999D01*
X80139991Y-96980500D01*
X81440008Y-96980499D01*
X81542797Y-96969999D01*
X81709334Y-96914814D01*
X81858656Y-96822712D01*
X81982712Y-96698656D01*
X82074814Y-96549334D01*
X82129999Y-96382797D01*
X82140500Y-96280009D01*
X82140499Y-94679992D01*
X82129999Y-94577203D01*
X82074814Y-94410666D01*
X81982712Y-94261344D01*
X81858656Y-94137288D01*
X81709334Y-94045186D01*
X81542797Y-93990001D01*
X81542795Y-93990000D01*
X81440010Y-93979500D01*
X80139998Y-93979500D01*
X80139981Y-93979501D01*
X80037203Y-93990000D01*
X80037200Y-93990001D01*
X79870668Y-94045185D01*
X79870663Y-94045187D01*
X79721342Y-94137289D01*
X79597289Y-94261342D01*
X79501551Y-94416559D01*
X79449603Y-94463283D01*
X79380640Y-94474506D01*
X79316558Y-94446662D01*
X79308331Y-94439143D01*
X79169464Y-94300276D01*
X79169459Y-94300272D01*
X78997557Y-94175379D01*
X78808215Y-94078903D01*
X78606124Y-94013241D01*
X78540000Y-94002768D01*
X78540000Y-95046988D01*
X78482993Y-95014075D01*
X78355826Y-94980000D01*
X78224174Y-94980000D01*
X78097007Y-95014075D01*
X78040000Y-95046988D01*
X78040000Y-94002768D01*
X78039999Y-94002768D01*
X77973875Y-94013241D01*
X77771784Y-94078903D01*
X77582442Y-94175379D01*
X77410540Y-94300272D01*
X77410535Y-94300276D01*
X77260276Y-94450535D01*
X77260272Y-94450540D01*
X77135379Y-94622442D01*
X77038904Y-94811782D01*
X76973242Y-95013869D01*
X76973242Y-95013872D01*
X76940000Y-95223753D01*
X42500500Y-95223753D01*
X42500500Y-91500000D01*
X48894592Y-91500000D01*
X48914201Y-91786680D01*
X48972666Y-92068034D01*
X48972667Y-92068037D01*
X49068894Y-92338793D01*
X49068893Y-92338793D01*
X49201098Y-92593935D01*
X49366812Y-92828700D01*
X49451923Y-92919831D01*
X49562947Y-93038708D01*
X49785853Y-93220055D01*
X50031382Y-93369365D01*
X50218237Y-93450526D01*
X50294942Y-93483844D01*
X50571642Y-93561371D01*
X50821920Y-93595771D01*
X50856321Y-93600500D01*
X50856322Y-93600500D01*
X51143679Y-93600500D01*
X51174370Y-93596281D01*
X51428358Y-93561371D01*
X51705058Y-93483844D01*
X51818015Y-93434779D01*
X51968617Y-93369365D01*
X51968620Y-93369363D01*
X51968625Y-93369361D01*
X52214147Y-93220055D01*
X52437053Y-93038708D01*
X52633189Y-92828698D01*
X52798901Y-92593936D01*
X52931104Y-92338797D01*
X53027334Y-92068032D01*
X53085798Y-91786686D01*
X53105408Y-91500000D01*
X53085798Y-91213314D01*
X53027334Y-90931968D01*
X52981387Y-90802687D01*
X52931105Y-90661206D01*
X52931106Y-90661206D01*
X52798901Y-90406064D01*
X52633187Y-90171299D01*
X52554554Y-90087105D01*
X52437053Y-89961292D01*
X52214147Y-89779945D01*
X52214146Y-89779944D01*
X52164895Y-89749994D01*
X88994357Y-89749994D01*
X88994357Y-89750005D01*
X89014890Y-89997812D01*
X89014892Y-89997824D01*
X89075936Y-90238881D01*
X89175826Y-90466606D01*
X89311833Y-90674782D01*
X89311836Y-90674785D01*
X89480256Y-90857738D01*
X89676491Y-91010474D01*
X89895190Y-91128828D01*
X90130386Y-91209571D01*
X90375665Y-91250500D01*
X90624335Y-91250500D01*
X90869614Y-91209571D01*
X91104810Y-91128828D01*
X91323509Y-91010474D01*
X91519744Y-90857738D01*
X91688164Y-90674785D01*
X91824173Y-90466607D01*
X91924063Y-90238881D01*
X91985108Y-89997821D01*
X92005643Y-89750000D01*
X91995752Y-89630639D01*
X91985109Y-89502187D01*
X91985107Y-89502175D01*
X91924063Y-89261118D01*
X91824173Y-89033393D01*
X91688166Y-88825217D01*
X91666557Y-88801744D01*
X91519744Y-88642262D01*
X91323509Y-88489526D01*
X91323507Y-88489525D01*
X91323506Y-88489524D01*
X91104811Y-88371172D01*
X91104802Y-88371169D01*
X90869616Y-88290429D01*
X90624335Y-88249500D01*
X90375665Y-88249500D01*
X90130383Y-88290429D01*
X89895197Y-88371169D01*
X89895188Y-88371172D01*
X89676493Y-88489524D01*
X89480257Y-88642261D01*
X89311833Y-88825217D01*
X89175826Y-89033393D01*
X89075936Y-89261118D01*
X89014892Y-89502175D01*
X89014890Y-89502187D01*
X88994357Y-89749994D01*
X52164895Y-89749994D01*
X51968617Y-89630634D01*
X51705063Y-89516158D01*
X51705061Y-89516157D01*
X51705058Y-89516156D01*
X51575578Y-89479877D01*
X51428364Y-89438630D01*
X51428359Y-89438629D01*
X51428358Y-89438629D01*
X51286018Y-89419064D01*
X51143679Y-89399500D01*
X51143678Y-89399500D01*
X50856322Y-89399500D01*
X50856321Y-89399500D01*
X50571642Y-89438629D01*
X50571635Y-89438630D01*
X50363861Y-89496845D01*
X50294942Y-89516156D01*
X50294939Y-89516156D01*
X50294936Y-89516158D01*
X50294935Y-89516158D01*
X50031382Y-89630634D01*
X49785853Y-89779944D01*
X49562950Y-89961289D01*
X49366812Y-90171299D01*
X49201098Y-90406064D01*
X49068894Y-90661206D01*
X48972667Y-90931962D01*
X48972666Y-90931965D01*
X48914201Y-91213319D01*
X48894592Y-91500000D01*
X42500500Y-91500000D01*
X42500500Y-89749994D01*
X42994357Y-89749994D01*
X42994357Y-89750005D01*
X43014890Y-89997812D01*
X43014892Y-89997824D01*
X43075936Y-90238881D01*
X43175826Y-90466606D01*
X43311833Y-90674782D01*
X43311836Y-90674785D01*
X43480256Y-90857738D01*
X43676491Y-91010474D01*
X43895190Y-91128828D01*
X44130386Y-91209571D01*
X44375665Y-91250500D01*
X44624335Y-91250500D01*
X44869614Y-91209571D01*
X45104810Y-91128828D01*
X45323509Y-91010474D01*
X45519744Y-90857738D01*
X45688164Y-90674785D01*
X45824173Y-90466607D01*
X45924063Y-90238881D01*
X45985108Y-89997821D01*
X46005643Y-89750000D01*
X45995752Y-89630639D01*
X45985109Y-89502187D01*
X45985107Y-89502175D01*
X45924063Y-89261118D01*
X45824173Y-89033393D01*
X45688166Y-88825217D01*
X45666557Y-88801744D01*
X45519744Y-88642262D01*
X45323509Y-88489526D01*
X45323507Y-88489525D01*
X45323506Y-88489524D01*
X45104811Y-88371172D01*
X45104802Y-88371169D01*
X44869616Y-88290429D01*
X44624335Y-88249500D01*
X44375665Y-88249500D01*
X44130383Y-88290429D01*
X43895197Y-88371169D01*
X43895188Y-88371172D01*
X43676493Y-88489524D01*
X43480257Y-88642261D01*
X43311833Y-88825217D01*
X43175826Y-89033393D01*
X43075936Y-89261118D01*
X43014892Y-89502175D01*
X43014890Y-89502187D01*
X42994357Y-89749994D01*
X42500500Y-89749994D01*
X42500500Y-88124500D01*
X42520185Y-88057461D01*
X42572989Y-88011706D01*
X42624500Y-88000500D01*
X92375500Y-88000500D01*
X92442539Y-88020185D01*
G37*
%TD.AperFunction*%
%TD*%
M02*
